
<svg xmlns="http://www.w3.org/2000/svg" x="0px" y="0px" width="260.7px" height="67.3px"><path d="M251.4 21v18.1c0 4-1.9 6-5.1 6-3.5 0-5.4-2.1-5.4-6V21h-9.3v19.1c0 8.4 5.6 13.7 14.4 13.7s14.7-5.4 14.7-13.7V21H251.4zM114.3 39.2c0 4-1.9 6-5.1 6-3.5 0-5.4-2.1-5.4-6V21h-9.3v19.1c0 8.4 5.6 13.7 14.4 13.7s14.7-5.4 14.7-13.7V21h-9.3L114.3 39.2 114.3 39.2zM50.5 39.2c0 4-1.9 6-5.1 6-3.5 0-5.4-2.1-5.4-6V21h-9.3v19.1c0 8.4 5.6 13.7 14.4 13.7s14.7-5.4 14.7-13.7V21h-9.3L50.5 39.2 50.5 39.2zM209.3 35v18.1h9.3V35.4c0-3.5 1.6-5.4 4.9-5.4.7 0 2.3 0 3.7.5V21c-.9-.2-2.1-.5-3.3-.5C214.2 20.5 209.3 25.4 209.3 35zM78.6 35.9v-6.3h7.2l2.3-8.6h-9.5v-7.9h-9.3V21h-4v8.6h4v7c0 10.9 5.6 16.7 16.3 16.7h3.3v-8.8h-2.3C81 44.5 78.6 41.9 78.6 35.9zM14.9 35.9v-6.3h7.2l2.3-8.6h-9.5v-7.9H5.6V21H0v8.6h5.6v7c0 10.9 5.6 16.7 16.3 16.7h3.3v-8.8h-2.3C17.2 44.5 14.9 41.9 14.9 35.9z"/><g><path d="M198,20.4c-1,1.8-3.1,4.9-4.4,6.2c0.7,2.4,1.1,5,1.1,7.4C197.4,29.8,198.5,24.6,198,20.4z" fill="#00c3ff"/><linearGradient id="a" gradientUnits="userSpaceOnUse" x1="136.8" y1="51.0176" x2="200.6249" y2="51.0176" gradientTransform="matrix(1 0 0 1 0 0.22)"><stop offset="0" stop-color="#00dcff"/><stop offset="1" stop-color="#00c0ff"/></linearGradient><path d="M192.7,44.7c-2.5,6.2-6.8,11.1-12.5,14.1c-10.4,5.4-23.4,3.8-31.9-4.4c-3.6-1.5-6.9-3.5-9.4-6.5 c-0.7-0.2-1.4-0.5-2.1-0.8c8.3,18.5,29.3,25,45.9,16.5c10.9-5.5,17.3-16.9,18-28.4C198.9,38.8,195.9,42.1,192.7,44.7z" fill="url(#a)"/><linearGradient id="b" gradientUnits="userSpaceOnUse" x1="139.2851" y1="24.8032" x2="189.5231" y2="24.8032" gradientTransform="matrix(1 0 0 1 0 0.22)"><stop offset="0" stop-color="#0053ff" stop-opacity=".7"/><stop offset="0" stop-color="#0358ff" stop-opacity=".8"/><stop offset="6.890148e-02" stop-color="#0b65ff" stop-opacity=".7724"/><stop offset="0.202" stop-color="#1577ff" stop-opacity=".7192"/><stop offset="0.3422" stop-color="#1c81ff" stop-opacity=".6631"/><stop offset="0.5" stop-color="#1e85ff" stop-opacity=".6"/><stop offset="0.7106" stop-color="#2283ff" stop-opacity=".6842"/><stop offset="0.9099" stop-color="#2d7bff" stop-opacity=".764"/><stop offset="1" stop-color="#3576ff" stop-opacity=".8"/></linearGradient><path d="M187.2,15.5c-14.1-2.7-34.4,2.2-46.9,10.5c-1.1,2.8-1.2,7.4-0.8,9.3c8-11.1,34.8-17.6,48-14.3 c0.9-0.9,2.1-2.6,2.1-2.6C188.8,17.3,188,16.4,187.2,15.5z" fill="url(#b)"/><linearGradient id="c" gradientUnits="userSpaceOnUse" x1="151.5833" y1="60.4647" x2="194.9361" y2="17.1117" gradientTransform="matrix(1 0 0 1 0 0.22)"><stop offset="0" stop-color="#0098ff"/><stop offset="0.7752" stop-color="#0073ff"/><stop offset="1" stop-color="#0073ff"/></linearGradient><path d="M201.7,27.2c-0.5-2.7-1.8-4.9-3.7-6.8c0.5,4.3-0.6,9.5-3.2,13.6c-5.8,9.2-29.2,19.8-44.9,14.4 c-4.7,0.6-7.8,0.3-11-0.5c9.4,11.1,28.2,10.9,44,3.1C192.4,46.3,203.5,37.4,201.7,27.2z" fill="url(#c)"/><linearGradient id="d" gradientUnits="userSpaceOnUse" x1="133.797" y1="20.1778" x2="193.5" y2="20.1778" gradientTransform="matrix(1 0 0 1 0 0.22)"><stop offset="1.314430e-02" stop-color="#0094ff"/><stop offset="0.3465" stop-color="#00a4ff"/><stop offset="1" stop-color="#00c0ff"/></linearGradient><path d="M133.8,31.5c-0.1,4.8,2.3,8.6,7.1,9.3c-2-4.8-2.2-9.6-0.7-14.7l0,0c6.7-21.9,35.9-26,49.2-7.7 c2.1-2.8,2-4.4,4.1-5.5C174.5-11.8,134.2,1.5,133.8,31.5z" fill="url(#d)"/><linearGradient id="e" gradientUnits="userSpaceOnUse" x1="131.2062" y1="30.3701" x2="199.3962" y2="30.3701" gradientTransform="matrix(1 0 0 1 0 0.22)"><stop offset="0" stop-color="#4057ff"/><stop offset="0.5039" stop-color="#aa5aff"/><stop offset="1" stop-color="#ff4169"/></linearGradient><path d="M197.2,13c-1.2-0.6-2.5-0.6-3.6-0.1c-0.8,0.4-1.5,1-1.9,1.8c0,0-1.3,2.5-2.1,3.6l0,0c-2.2,3.2-5.3,6-8.3,8.3 c-13,9.9-33.2,15.3-40.2,14.1c-4.7-0.8-7-4.1-7.1-8.9c-4.1,5.3-3.3,10.7,0.6,13.8c7.8,6.2,23.6,1.6,32.9-1.9 c11.5-4.3,24.3-12.2,30.4-22.9c0.8-1.5,1-1.9,1.2-2.4C200,16.4,199.2,14,197.2,13z" fill="url(#e)"/></g></svg>