<svg xmlns="http://www.w3.org/2000/svg"  id="Layer_1"  width="530" height="205" viewBox="0 0 530 205"><style>.st1{fill:#00dcff}</style><path d="M284.5 85v28c0 6.1-2.9 9.3-7.9 9.3-5.4 0-8.3-3.2-8.3-9.3V85h-14.4v29.5c0 12.9 8.6 21.2 22.3 21.2s22.7-8.3 22.7-21.2V85h-14.4zm-107.2 28.1c0 6.1-2.9 9.3-7.9 9.3-5.4 0-8.3-3.2-8.3-9.3v-28h-14.4v29.5c0 12.9 8.6 21.2 22.3 21.2 13.7 0 22.7-8.3 22.7-21.2V85h-14.4v28.1zm-98.5 0c0 6.1-2.9 9.3-7.9 9.3-5.4 0-8.3-3.2-8.3-9.3v-28H48.2v29.5c0 12.9 8.6 21.2 22.3 21.2 13.7 0 22.7-8.3 22.7-21.2V85H78.8v28.1zm140.6-6.5v28h14.4v-27.3c0-5.4 2.5-8.3 7.5-8.3 1.1 0 3.6 0 5.8.7V85c-1.4-.4-3.2-.7-5-.7-15.2 0-22.7 7.6-22.7 22.3zm-97.1 1.5v-9.7h11.1L137 85h-14.7V72.8h-14.4V85h-6.1v13.3h6.1v10.8c0 16.9 8.6 25.9 25.2 25.9h5v-13.7h-3.6c-8.6.1-12.2-3.9-12.2-13.2zm-98.6 0v-9.7h11.1l3.6-13.3H23.7V72.9H9.3V85H.7v13.3h8.6v10.8c0 16.9 8.6 25.9 25.2 25.9h5v-13.7h-3.6c-8.6.1-12.2-3.9-12.2-13.2z"/><g transform="translate(-158 -194)"><linearGradient id="SVGID_1_" x1="353.4" x2="558.6" y1="357.3" y2="357.3" gradientUnits="userSpaceOnUse"><stop offset="0" stop-color="#00b4ff"/><stop offset="1" stop-color="#00dcff"/></linearGradient><path fill="url(#SVGID_1_)" d="M541.3 377.9C457 399.8 388 365.3 367.5 322.7a7.5 7.5 0 0 0-13.4 6.6c23.2 46.3 104.5 88.3 204.4 54.3a72 72 0 0 1-17.2-5.7z"/><path d="M585.3 372.6a194 194 0 0 0 32.3-20.1c-6 .8-12.7 1.3-19.8 1.6a203 203 0 0 1-34 16.7 86.4 86.4 0 0 0 21.5 1.8z" class="st1"/><linearGradient id="SVGID_2_" x1="500.6" x2="668.5" y1="358.4" y2="358.4" gradientUnits="userSpaceOnUse"><stop offset="0" stop-color="#0093ff"/><stop offset="1" stop-color="#0086ff"/></linearGradient><path fill="url(#SVGID_2_)" d="M644.1 345.8C615 379.3 558 381.5 527.2 352a98.8 98.8 0 0 1-7.8-8.1c-3.1.1-11.9.1-18.9-2a93.5 93.5 0 0 0 57.8 41.8 101 101 0 0 0 67.8-7.7 89.9 89.9 0 0 0 42.3-45.7c-.3.5-9.2 9.5-24.3 15.5z"/><path d="M639.1 332.7c10.8-12 19.5-25.8 24.7-41.2 3.8-11.1 3.6-15.4 3.5-25.8-2.8 4.5-6.8 10.1-10.6 14.9a98.5 98.5 0 0 1-17.8 37 121.4 121.4 0 0 1-18.4 19.8c0-.1 9.3-1.3 18.6-4.7z" class="st1"/><linearGradient id="SVGID_3_" x1="503.2" x2="656.7" y1="241.6" y2="241.6" gradientUnits="userSpaceOnUse"><stop offset="0" stop-color="#0093ff" stop-opacity=".8"/><stop offset=".1" stop-color="#0a97ff" stop-opacity=".8"/><stop offset=".3" stop-color="#169cff" stop-opacity=".7"/><stop offset=".5" stop-color="#1a9eff" stop-opacity=".6"/><stop offset=".7" stop-color="#169bff" stop-opacity=".7"/><stop offset=".9" stop-color="#0c91ff" stop-opacity=".8"/><stop offset="1" stop-color="#0086ff" stop-opacity=".8"/></linearGradient><path fill="url(#SVGID_3_)" d="M655.8 257l.9-1.4a54.2 54.2 0 0 0-5.9-15.4v-.1c-33.9-24.6-93.4-29-132.6-3.5-.3.2-10.5 12.8-15 27 39.6-49.5 122-41.6 152.6-6.6z"/><linearGradient id="SVGID_4_" x1="499.2" x2="655.3" y1="280.3" y2="280.3" gradientUnits="userSpaceOnUse"><stop offset="0" stop-color="#4c67ff" stop-opacity=".8"/><stop offset=".1" stop-color="#476bff" stop-opacity=".8"/><stop offset=".3" stop-color="#3973ff" stop-opacity=".7"/><stop offset=".5" stop-color="#3576ff" stop-opacity=".6"/><stop offset=".7" stop-color="#3179ff" stop-opacity=".7"/><stop offset=".9" stop-color="#2481ff" stop-opacity=".8"/><stop offset="1" stop-color="#1e85ff" stop-opacity=".8"/></linearGradient><path fill="url(#SVGID_4_)" d="M655.3 257.9c-19-6.9-50.5-9.9-79.9-3.5a164 164 0 0 0-76.2 40.7c.3 4.6 1 9.7 2.3 14.6 6.8-10.1 16.8-17.5 19-19.5 33.5-26.2 73-36.8 116.3-29.2 1.4.3 8.1 1.6 13.6 3.5 2.5-3 4.8-6.6 4.9-6.6z"/><linearGradient id="SVGID_5_" x1="487.7" x2="664.2" y1="256" y2="256" gradientUnits="userSpaceOnUse"><stop offset="0" stop-color="#0096ff"/><stop offset="1" stop-color="#00dcff"/></linearGradient><path fill="url(#SVGID_5_)" d="M492.1 300.4a43 43 0 0 0 11.5 16.3 82.9 82.9 0 0 1-.5-53 106.7 106.7 0 0 1 14.9-26.9c5.5-7 12.2-12.8 19.6-17.6a87.8 87.8 0 0 1 71.5-9.4 65.7 65.7 0 0 1 43.5 33.8 60 60 0 0 1 4.1 11.9c1.4-2.3 3.3-5.4 4.1-7.2.8-1.4 2-2.5 3.3-3.1-23-65.5-141.6-72.2-172.9 13.3a70 70 0 0 0-1.4 4.9c-.2 1.7-5.8 18.6 2.3 37z"/><path fill="#0086ff" d="M676.5 279.8c-.2-2.1-1.4-6.2-1.5-6.6a56.6 56.6 0 0 0-5.2-12.1l-2.6 4.6s.1 10.3-.6 15c1 6.4.8 13.2-.4 19.7a85.1 85.1 0 0 1-6.2 19.5l-1 2.2c2.8-2.3 5.3-4.9 7.3-7.7 6.2-8.8 11.4-24 10.2-34.6z"/><linearGradient id="SVGID_6_" x1="501.4" x2="501.4" y1="263.5" y2="329.1" gradientUnits="userSpaceOnUse"><stop offset="0" stop-color="#00a6ff"/><stop offset=".1" stop-color="#009aff"/><stop offset=".3" stop-color="#008cff"/><stop offset=".6" stop-color="#0083ff"/><stop offset="1" stop-color="#0081ff"/></linearGradient><path fill="url(#SVGID_6_)" d="M485.4 314a30.4 30.4 0 0 0 19.9 14.2c4.3.9 10.7 1.1 17.6.3a53.2 53.2 0 0 1-30.6-28.2 66 66 0 0 1-2.3-36.9l-1 1.5c-9.9 15.4-12.6 33-3.6 49.1z"/><linearGradient id="SVGID_7_" x1="483.7" x2="673.7" y1="294.4" y2="294.4" gradientUnits="userSpaceOnUse"><stop offset=".1" stop-color="#4057ff"/><stop offset=".5" stop-color="#aa5cff"/><stop offset="1" stop-color="#ff3f68"/></linearGradient><path fill="url(#SVGID_7_)" d="M670.1 245.6a7 7 0 0 0-9.3 2.8c-1.3 2.6-4.8 8.3-5.7 9.7a117.4 117.4 0 0 1-21.6 23.5c-41.4 35-106.4 51.4-128.1 46.7a30.2 30.2 0 0 1-19.9-14.2c-3.5 9.1-1.4 16.9 4.2 22 13.8 12.8 43.4 7.4 61.6 2.7 34.9-9 65.8-21.4 92.6-45.2 18.1-16.2 23.9-28 29.4-39.1 1.3-3.3 0-7.2-3.2-8.9z"/><linearGradient id="SVGID_8_" x1="523.1" x2="683.2" y1="313.7" y2="313.7" gradientUnits="userSpaceOnUse"><stop offset="0" stop-color="#0081ff"/><stop offset="1" stop-color="#0073ff"/></linearGradient><path fill="url(#SVGID_8_)" d="M675 273.2c-.1-.1 1.2 4.5 1.4 6.6 1.2 10.6-4 25.8-10.1 34.5-9.5 13.5-29.5 20.4-45.9 22.9a253.9 253.9 0 0 1-64.1.1l-5.2 1.3c-15.9 3.9-28.1 5-28.1 5 34.2 13.3 85.1 12.6 109.3 6 48-12.6 61.5-50.6 42.7-76.4z"/></g></svg>