<?xml version="1.0" encoding="UTF-8"?>
<svg width="15px" height="15px" viewBox="0 0 15 15" version="1.1" xmlns="http://www.w3.org/2000/svg" xmlns:xlink="http://www.w3.org/1999/xlink">
    <!-- Generator: sketchtool 40.3 (33839) - http://www.bohemiancoding.com/sketch -->
    <title>2E005164-E0F7-41CC-879B-D6AD3BA51FA2</title>
    <desc>Created with sketchtool.</desc>
    <defs></defs>
    <g id="Page-1" stroke="none" stroke-width="1" fill="none" fill-rule="evenodd">
        <g id="outsourse-question-answer-collapse" transform="translate(-904.000000, -392.000000)" fill="#3C9C01">
            <path d="M913.256238,392.471984 C913.431101,391.642587 914.948769,391.756956 914.948769,394.033882 C914.948769,396.310808 913.921974,397.143273 913.921974,397.890319 C913.921974,398.347122 916.083325,398.014226 917.472489,398.014226 C918.861653,398.014226 919.30487,399.793946 917.957411,400.050764 C919.74621,400.68195 918.943412,402.566221 917.814489,402.566221 C918.943412,402.738352 918.972031,405.078076 917.028476,404.808372 C917.814489,405.844985 916.943815,406.788527 915.815859,406.895891 C912.174147,407.242526 907.482923,406.698945 907.482923,405.63127 L907.482923,398.347122 C907.482923,397.300548 912.080262,398.049789 913.256238,392.471984 L913.256238,392.471984 Z M904.932074,398.076968 L905.514894,398.076968 C906.029664,398.076968 906.446968,398.489856 906.446968,398.998937 L906.446968,405.33953 C906.446968,405.848719 906.029099,406.261499 905.514894,406.261499 L904.932074,406.261499 C904.417304,406.261499 904,405.84861 904,405.33953 L904,398.998937 C904,398.489747 904.417868,398.076968 904.932074,398.076968 L904.932074,398.076968 Z" id="Shape"></path>
        </g>
    </g>
</svg>